<svg id="Layer_1" data-name="Layer 1" xmlns="http://www.w3.org/2000/svg" viewBox="0 0 1002.46 231.31"><defs><style>.cls-1{fill:#fff;}</style></defs><title>Vento Logo</title><path class="cls-1" d="M937.71,552.37h-133c4.9,21.89,23.52,35.29,50.31,35.29,18.62,0,32-5.56,44.11-17l27.11,29.4c-16.33,18.62-40.84,28.42-72.53,28.42-60.76,0-100.3-38.22-100.3-90.49,0-52.6,40.19-90.5,93.77-90.5,51.62,0,91.48,34.63,91.48,91.15C938.69,542.57,938,548.12,937.71,552.37ZM804.08,522.64h86.58c-3.59-22.21-20.25-36.59-43.12-36.59C824.34,486.05,807.68,500.1,804.08,522.64Z" transform="translate(-512.54 -397.18)"/><path class="cls-1" d="M1152.35,525.26V625.88h-51V533.1c0-28.43-13.07-41.5-35.61-41.5-24.51,0-42.15,15-42.15,47.38v86.9h-51V450.11h48.68v20.58c13.73-15,34.31-23.19,58.16-23.19C1121,447.5,1152.35,471.68,1152.35,525.26Z" transform="translate(-512.54 -397.18)"/><path class="cls-1" d="M1311.79,617.39c-10.46,7.51-25.81,11.1-41.49,11.1-41.5,0-65.67-21.23-65.67-63v-72.2h-27.12V454h27.12V411.24H1225a30.59,30.59,0,0,1,30.59,30.59V454h43.78v39.21h-43.78v71.55c0,15,8.17,23.19,21.89,23.19a34.35,34.35,0,0,0,20.59-6.53Z" transform="translate(-512.54 -397.18)"/><path class="cls-1" d="M1321.92,538c0-52.93,40.84-90.5,96.7-90.5S1515,485.07,1515,538s-40.51,90.49-96.38,90.49S1321.92,590.92,1321.92,538Zm141.46,0c0-30.39-19.27-48.68-44.76-48.68s-45.08,18.29-45.08,48.68,19.6,48.68,45.08,48.68S1463.38,568.38,1463.38,538Z" transform="translate(-512.54 -397.18)"/><polygon class="cls-1" points="264.2 0 232.96 62.69 221.53 85.65 150.28 228.7 113.92 228.7 42.67 85.65 112.29 85.65 132.1 125.41 151.91 85.65 163.34 62.69 194.57 0 264.2 0"/><path class="cls-1" d="M613.39,459.87H543.77l-31.23-62.69h50.68a30.61,30.61,0,0,1,27.39,16.95Z" transform="translate(-512.54 -397.18)"/></svg>